<svg width="384" height="811" viewBox="0 0 384 811" fill="none" xmlns="http://www.w3.org/2000/svg">
<path opacity="0.52" d="M92.268 783.112C112.459 775.089 192.128 742.817 155.106 712.399C142.388 701.95 125.26 696.755 109.687 692.37C91.0593 687.127 71.9838 683.463 52.8753 680.481C40.882 678.612 28.8224 676.955 16.7333 675.808C15.751 675.714 15.1096 677.231 16.1799 677.589C45.4634 687.451 75.7955 694.887 106.636 697.592C127.01 699.375 148.767 699.68 168.484 693.451C179.932 689.832 192.482 682.736 193.374 669.408C193.865 662.051 191.306 654.722 188.105 648.218C183.433 638.701 176.989 630.1 170.076 622.111C160.108 610.597 148.88 600.189 137.105 590.55C130.121 584.832 122.914 579.386 115.544 574.178C111.878 571.592 108.213 568.854 104.358 566.553C103.927 566.297 103.123 565.505 102.503 565.834C102.027 566.09 101.795 566.504 101.958 567.051C102.227 567.962 103.856 568.877 104.526 569.407C106.831 571.235 109.215 572.963 111.618 574.66C119.319 580.081 127.359 585.061 135.706 589.42C151.985 597.92 174.995 607.844 193.047 598.851C213.616 588.605 220.089 560.494 220.616 539.625C221.313 512.073 211.451 485.514 190.823 466.879C166.039 444.492 131.425 436.149 98.7069 439.138C98.7698 439.765 98.8336 440.387 98.9014 441.014C153.747 429.441 208.626 403.316 241.074 355.896C250.78 341.714 258.711 326.191 262.096 309.227C265.036 294.526 264.655 279.319 261.781 264.641C256.259 236.463 242.324 210.412 225.725 187.25C213.59 170.321 199.765 154.482 184.604 140.202C183.764 139.414 182.749 140.609 183.236 141.469C205.375 181.076 250.449 205.838 295.976 199.337C315.566 196.538 334.007 187.651 347.234 172.762C361.741 156.432 369.379 134.668 370.53 113.027C371.992 85.5573 363.125 58.4984 346.447 36.7179C345.713 35.7546 344.175 36.8459 344.915 37.8101C372.606 73.9795 378.418 127.925 350.455 165.792C325.465 199.63 278.589 205.549 241.284 190.599C217.157 180.929 197.419 163.004 184.769 140.377C184.311 140.799 183.858 141.222 183.4 141.645C195.905 153.422 207.43 166.278 217.908 179.884C234.778 201.794 249.34 226.229 257.031 252.953C261.155 267.281 263.147 282.325 261.895 297.223C260.461 314.299 254.533 330.24 245.824 344.91C229.006 373.256 204.308 395.457 175.584 411.337C151.647 424.572 125.427 433.504 98.7119 439.139C97.5509 439.382 97.6712 441.123 98.9064 441.015C127.549 438.401 157.473 444.471 181.087 461.452C202.992 477.205 216.112 500.919 218.393 527.749C220.261 549.723 216.231 578.936 197.735 593.64C181.749 606.345 159.077 598.499 142.678 590.778C133.254 586.34 124.239 581.014 115.629 575.155C112.709 573.168 109.825 571.116 107.024 568.965C106.185 568.32 105.371 567.649 104.538 567C104.2 566.735 103.578 565.892 103.728 566.396C103.547 566.804 103.363 567.205 103.182 567.613C102.416 568.024 102.335 567.471 103.766 568.414C105.361 569.465 106.949 570.531 108.53 571.611C111.825 573.854 115.087 576.143 118.315 578.482C124.131 582.691 129.834 587.06 135.402 591.599C145.721 600.016 155.623 609.014 164.638 618.831C171.699 626.518 178.323 634.748 183.595 643.779C187.521 650.513 191.01 658.094 191.509 665.984C192.372 679.51 181.265 687.077 169.76 691.063C151.325 697.456 130.625 697.466 111.398 696.099C79.2194 693.812 47.4916 686.167 16.9883 675.896C16.8019 676.491 16.6205 677.087 16.435 677.677C43.144 680.213 69.9146 684.506 95.9988 690.766C112.95 694.832 130.465 699.629 145.714 708.318C151.1 711.391 156.614 715.188 160.068 720.457C164.305 726.916 163.183 734.213 158.903 740.425C151.64 750.964 139.565 758.169 128.6 764.258C116.714 770.848 104.233 776.351 91.6136 781.368C90.4722 781.798 91.1382 783.564 92.268 783.112Z" fill="#222428"/>
</svg>
