<svg width="388" height="672" viewBox="0 0 388 672" fill="none" xmlns="http://www.w3.org/2000/svg">
<path opacity="0.51" d="M387.293 632.842C384.735 610.915 375.218 590.302 356.689 577.564C336.127 563.431 309.665 560.669 285.511 564.458C268.799 567.08 252.729 572.839 237.79 580.714C238.068 581.2 238.345 581.687 238.623 582.177C266.552 564.292 295.033 546.148 320.118 524.333C326.192 519.05 332.581 513.392 336.948 506.551C338.957 503.4 341.188 498.836 338.62 495.352C335.497 491.115 328.272 491.134 323.623 491.139C312.071 491.151 300.469 493.394 289.201 495.719C271.278 499.418 253.57 504.144 235.973 509.143C219.393 513.851 202.855 518.792 186.928 525.427C151.912 540.01 120.622 562.723 95.5315 591.141C93.2934 593.676 91.1067 596.261 88.9653 598.881C88.3495 599.635 89.3754 600.655 90.1448 600.079C116.71 580.338 141.757 558.783 166.353 536.658C189.747 515.613 213.381 493.942 232.546 468.865C239.768 459.418 246.767 449.109 250.461 437.698C253.177 429.301 253.878 419.687 248.582 412.106C240.644 400.731 223.806 398.006 211.22 395.563C191.663 391.767 172.115 389.593 152.171 390.558C118.769 392.171 86.005 401.312 55.7413 415.339C52.87 416.67 50.0226 418.049 47.193 419.462C46.5223 419.798 46.4726 421.048 47.3893 421.088C66.2127 421.868 85.0862 419.888 103.249 414.815C121.293 409.775 138.355 401.58 154.222 391.688C169.251 382.325 183.687 371.223 195.064 357.559C204.108 346.697 211.884 333.035 210.764 318.42C208.689 291.356 178.433 276.837 156.127 269.028C142.031 264.095 127.405 260.653 112.671 258.285C100.779 256.378 88.6651 255.022 76.6087 255.158C73.7901 255.188 70.965 255.315 68.1559 255.499C65.2383 255.691 61.4608 255.595 58.7658 256.914C54.7059 258.899 60.6522 261.1 62.3147 261.615C76.1222 265.904 91.1248 267.664 105.438 269.375C122.11 271.372 138.937 272.269 155.725 272.355C172.354 272.442 189.215 271.876 205.605 268.891C215.697 267.054 238.53 262.407 234.169 247.464C231.488 238.276 222.618 230.885 215.604 225.015C199.177 211.258 180.612 199.993 162.167 189.201C129.477 170.07 95.6859 152.818 61.7098 136.108C50.8577 130.77 39.9687 125.504 29.0588 120.291C28.8342 120.811 28.6097 121.33 28.3851 121.85C64.6754 134.387 101.146 146.492 138.033 157.17C162.429 164.235 187.107 170.988 212.204 175.095C220.106 176.39 228.102 177.436 236.118 177.559C241.138 177.637 246.439 177.476 251.216 175.765C254.319 174.652 257.228 172.65 258.183 169.344C259.737 163.968 256.161 158.094 253.278 153.85C247.174 144.862 239.095 137.151 231.125 129.851C218.151 117.966 204.32 107.019 190.317 96.3846C186.106 93.1859 181.872 90.0265 177.618 86.8832C176.867 86.3309 175.785 87.2958 176.42 88.0627C194.21 109.566 223.093 120.867 250.558 113.656C262.362 110.554 273.27 103.922 280.464 93.9404C288.776 82.4105 292.012 67.7815 291.02 53.7356C289.716 35.2911 281.091 18.2131 267.798 5.49595C267.009 4.73854 265.968 6.08151 266.751 6.83048C288.408 27.5477 297.527 62.8533 281.309 89.6075C268.358 110.971 241.021 117.701 217.774 112.308C201.968 108.643 188.074 99.4821 177.773 87.0332C177.374 87.4279 176.974 87.818 176.575 88.2127C191.43 99.1821 206.112 110.419 220.156 122.416C229.682 130.554 239.147 139.023 247.194 148.657C252.054 154.477 263.217 168.627 251.762 173.715C247.504 175.606 242.536 175.845 237.948 175.874C230.477 175.923 222.991 175.02 215.617 173.904C192.275 170.364 169.299 164.263 146.605 157.859C112.027 148.102 77.8454 136.943 43.8444 125.356C38.9183 123.675 33.9911 121.985 29.0717 120.285C28.0441 119.931 27.4013 121.367 28.398 121.844C65.0033 139.335 101.405 157.335 136.971 176.867C158.885 188.904 180.715 201.416 201.073 215.971C211.147 223.177 222.061 231.07 229.219 241.386C230.963 243.902 232.585 246.761 232.975 249.851C233.588 254.664 230.205 258.218 226.265 260.554C215.597 266.87 201.641 268.188 189.568 269.326C172.74 270.913 155.754 270.97 138.879 270.274C124.001 269.662 109.172 268.36 94.4449 266.16C86.9281 265.038 79.4157 263.802 71.9783 262.241C68.8909 261.592 65.7834 260.928 62.7692 259.978C61.8592 259.691 60.9392 259.397 60.0774 258.981C58.9154 258.419 58.9119 258.579 60.0143 258.268C65.5164 256.711 71.8173 256.863 77.5082 256.833C82.8662 256.802 88.2299 257.121 93.5706 257.59C106.99 258.77 120.338 260.994 133.434 264.143C147.553 267.537 161.558 272.03 174.553 278.573C185.674 284.175 196.819 291.603 203.588 302.321C221.032 329.952 194.154 359.424 173.625 375.916C144.381 399.413 108.723 415.632 71.1651 418.891C63.3503 419.569 55.5035 419.717 47.6683 419.395C47.7339 419.939 47.7989 420.478 47.8645 421.022C75.5442 407.192 105.316 397.323 136.104 393.613C155.548 391.268 175.272 391.423 194.649 394.334C203.295 395.63 211.972 397.227 220.474 399.256C227.53 400.94 234.892 403.016 240.977 407.119C262.075 421.348 244.755 449.365 233.935 464.207C216.065 488.721 193.444 509.787 171.086 530.124C144.713 554.109 117.771 577.456 89.1478 598.731C89.5425 599.13 89.9327 599.53 90.3273 599.929C113.03 572.17 141.463 549.048 173.717 533.267C188.824 525.873 204.663 520.206 220.745 515.348C238.257 510.053 255.924 505.177 273.717 500.925C286.718 497.815 299.878 494.919 313.187 493.483C319.82 492.764 328.409 491.546 334.734 494.467C345.921 499.633 326.292 516.522 322.467 520.001C300.58 539.93 275.259 556.348 250.543 572.478C246.248 575.28 241.938 578.062 237.617 580.826C236.817 581.338 237.597 582.739 238.45 582.29C262.806 569.449 290.912 561.946 318.54 565.452C339.384 568.094 359.75 577.542 372.099 595.055C379.986 606.24 384.05 619.56 385.623 633.053C385.734 634.129 387.42 633.93 387.293 632.842Z" fill="#222428"/>
</svg>
